<svg data-v-423bf9ae="" xmlns="http://www.w3.org/2000/svg" viewBox="0 0 370 90" class="iconLeft"><!----><!----><!----><g data-v-423bf9ae="" id="96ac70e1-e216-40ac-93f3-a0a33050b3fb" fill="#222222" transform="matrix(5.830904006958008,0,0,5.830904006958008,83.27999877929688,2.3469369411468506)"><path d="M0.17 12.29L1.86 2.69L6.43 2.69L6.43 2.69Q8.02 2.69 8.82 3.37L8.82 3.37L8.82 3.37Q9.62 4.05 9.62 5.26L9.62 5.26L9.62 5.26Q9.62 6.41 9.00 7.21L9.00 7.21L9.00 7.21Q8.37 8.01 7.38 8.33L7.38 8.33L8.72 12.29L6.82 12.29L5.64 8.58L2.62 8.58L1.96 12.29L0.17 12.29ZM2.87 7.07L6.01 7.07L6.01 7.07Q6.82 7.07 7.30 6.61L7.30 6.61L7.30 6.61Q7.78 6.16 7.78 5.39L7.78 5.39L7.78 5.39Q7.78 4.83 7.43 4.52L7.43 4.52L7.43 4.52Q7.08 4.21 6.41 4.21L6.41 4.21L3.37 4.21L2.87 7.07ZM10.28 12.29L11.97 2.69L15.99 2.69L15.99 2.69Q19.25 2.69 19.25 5.31L19.25 5.31L19.25 5.31Q19.25 6.40 18.78 7.20L18.78 7.20L18.78 7.20Q18.31 8.01 17.45 8.43L17.45 8.43L17.45 8.43Q16.59 8.86 15.46 8.86L15.46 8.86L12.67 8.86L12.07 12.29L10.28 12.29ZM12.94 7.34L15.44 7.34L15.44 7.34Q16.32 7.34 16.87 6.85L16.87 6.85L16.87 6.85Q17.42 6.37 17.42 5.50L17.42 5.50L17.42 5.50Q17.42 4.21 15.99 4.21L15.99 4.21L13.48 4.21L12.94 7.34ZM22.99 12.46L22.99 12.46Q22.05 12.46 21.32 12.08L21.32 12.08L21.32 12.08Q20.59 11.70 20.19 11.03L20.19 11.03L20.19 11.03Q19.78 10.35 19.77 9.45L19.77 9.45L19.77 9.45Q19.77 8.83 19.87 8.30L19.87 8.30L19.87 8.30Q20.15 6.57 21.13 5.66L21.13 5.66L21.13 5.66Q22.12 4.76 23.86 4.76L23.86 4.76L23.86 4.76Q24.81 4.76 25.54 5.13L25.54 5.13L25.54 5.13Q26.26 5.50 26.67 6.19L26.67 6.19L26.67 6.19Q27.08 6.87 27.09 7.76L27.09 7.76L27.09 7.76Q27.09 8.33 27.01 8.92L27.01 8.92L27.01 8.92Q26.42 12.46 22.99 12.46L22.99 12.46ZM23.10 11.07L23.10 11.07Q24.11 11.07 24.66 10.49L24.66 10.49L24.66 10.49Q25.21 9.90 25.38 8.62L25.38 8.62L25.38 8.62Q25.45 8.22 25.45 7.73L25.45 7.73L25.45 7.73Q25.44 6.97 24.99 6.55L24.99 6.55L24.99 6.55Q24.54 6.13 23.73 6.13L23.73 6.13L23.73 6.13Q22.74 6.13 22.19 6.73L22.19 6.73L22.19 6.73Q21.64 7.32 21.48 8.60L21.48 8.60L21.48 8.60Q21.42 9.03 21.42 9.49L21.42 9.49L21.42 9.49Q21.43 10.23 21.87 10.65L21.87 10.65L21.87 10.65Q22.30 11.07 23.10 11.07L23.10 11.07ZM27.96 12.29L29.26 4.93L30.62 4.93L30.59 6.09L30.69 6.09L30.69 6.09Q31.02 5.47 31.44 5.12L31.44 5.12L31.44 5.12Q31.86 4.76 32.52 4.76L32.52 4.76L32.52 4.76Q32.80 4.76 33.03 4.82L33.03 4.82L33.03 4.82Q33.25 4.87 33.25 4.89L33.25 4.89L32.98 6.47L32.45 6.47L32.45 6.47Q30.66 6.47 30.30 8.51L30.30 8.51L29.64 12.29L27.96 12.29ZM35.04 12.46L35.04 12.46Q34.19 12.46 33.81 12.08L33.81 12.08L33.81 12.08Q33.43 11.70 33.43 11.09L33.43 11.09L33.43 11.09Q33.43 10.82 33.60 9.94L33.60 9.94L34.23 6.30L33.35 6.30L33.59 4.93L34.47 4.93L34.83 2.87L36.62 2.87L36.15 4.93L37.42 4.93L37.17 6.30L35.91 6.30L35.22 10.22L35.22 10.22Q35.15 10.50 35.15 10.65L35.15 10.65L35.15 10.65Q35.15 11.09 35.66 11.09L35.66 11.09L36.33 11.09L36.13 12.24L36.13 12.24Q35.91 12.32 35.59 12.39L35.59 12.39L35.59 12.39Q35.28 12.46 35.04 12.46L35.04 12.46ZM43.88 10.71L43.88 10.71Q43.88 11.09 44.28 11.09L44.28 11.09L44.74 11.09L44.53 12.24L44.53 12.24Q44.11 12.46 43.47 12.46L43.47 12.46L43.47 12.46Q42.92 12.46 42.59 12.14L42.59 12.14L42.59 12.14Q42.27 11.82 42.27 11.26L42.27 11.26L42.20 11.26L42.20 11.26Q41.82 11.83 41.22 12.14L41.22 12.14L41.22 12.14Q40.61 12.46 39.94 12.46L39.94 12.46L39.94 12.46Q38.84 12.46 38.20 11.73L38.20 11.73L38.20 11.73Q37.56 11.00 37.56 9.63L37.56 9.63L37.56 9.63Q37.56 8.41 37.95 7.29L37.95 7.29L37.95 7.29Q38.35 6.17 39.11 5.47L39.11 5.47L39.11 5.47Q39.87 4.76 40.94 4.76L40.94 4.76L40.94 4.76Q41.69 4.76 42.19 5.01L42.19 5.01L42.19 5.01Q42.69 5.26 42.99 5.78L42.99 5.78L43.08 5.78L43.51 4.93L44.90 4.93L44.90 4.93Q44.72 5.95 44.57 6.77L44.57 6.77L44.57 6.77Q44.42 7.59 44.31 8.23L44.31 8.23L44.31 8.23Q43.88 10.57 43.88 10.71L43.88 10.71ZM40.53 11.02L40.53 11.02Q41.27 11.02 41.75 10.47L41.75 10.47L41.75 10.47Q42.22 9.93 42.44 9.16L42.44 9.16L42.44 9.16Q42.66 8.39 42.66 7.69L42.66 7.69L42.66 7.69Q42.66 6.16 41.37 6.16L41.37 6.16L41.37 6.16Q40.64 6.16 40.18 6.68L40.18 6.68L40.18 6.68Q39.72 7.20 39.52 7.97L39.52 7.97L39.52 7.97Q39.31 8.74 39.31 9.53L39.31 9.53L39.31 9.53Q39.31 10.28 39.61 10.65L39.61 10.65L39.61 10.65Q39.90 11.02 40.53 11.02L40.53 11.02ZM45.60 12.29L47.38 2.17L49.06 2.17L47.28 12.29L45.60 12.29Z"></path></g><defs data-v-423bf9ae=""><linearGradient data-v-423bf9ae="" gradientTransform="rotate(25)" id="50dba1db-c3e0-4e89-af5f-3839779fb1fc" x1="0%" y1="0%" x2="100%" y2="0%"><stop data-v-423bf9ae="" offset="0%" style="stop-color: rgb(34, 216, 249); stop-opacity: 1;"></stop><stop data-v-423bf9ae="" offset="100%" style="stop-color: rgb(123, 16, 198); stop-opacity: 1;"></stop></linearGradient></defs><g data-v-423bf9ae="" id="cbb43531-c360-4948-8928-97f53524546c" transform="matrix(2.8125,0,0,2.8125,-12.426002502441406,0)" stroke="none" fill="url(#50dba1db-c3e0-4e89-af5f-3839779fb1fc)"><path d="M27.377 11.377L16 0 4.623 11.377 16 22.753l11.377-11.376zM16 6.026l5.35 5.35L16 16.727l-5.35-5.35L16 6.026zM27.426 14.969l-5.664 5.664V32h5.664zM10.238 20.633l-5.664-5.664V32h5.664z"></path></g><!----></svg>